<svg width="129" height="129" viewBox="0 0 129 129" fill="none" xmlns="http://www.w3.org/2000/svg">
<path d="M113 14H13V114H113V14Z" fill="#333C45"/>
<g opacity="0.1">
<path opacity="0.1" d="M128.12 125.12V128.12H125.12" stroke="#20263C" stroke-miterlimit="10"/>
<path opacity="0.1" d="M119.36 128.12H6.88" stroke="#20263C" stroke-miterlimit="10" stroke-dasharray="5.77 5.77"/>
<path opacity="0.1" d="M4 128.12H1V125.12" stroke="#20263C" stroke-miterlimit="10"/>
<path opacity="0.1" d="M1 119.35V6.87988" stroke="#20263C" stroke-miterlimit="10" stroke-dasharray="5.77 5.77"/>
<path opacity="0.1" d="M1 4V1H4" stroke="#20263C" stroke-miterlimit="10"/>
<path opacity="0.1" d="M9.77002 1H122.24" stroke="#20263C" stroke-miterlimit="10" stroke-dasharray="5.77 5.77"/>
<path opacity="0.1" d="M125.12 1H128.12V4" stroke="#20263C" stroke-miterlimit="10"/>
<path opacity="0.1" d="M128.12 9.76001V122.24" stroke="#20263C" stroke-miterlimit="10" stroke-dasharray="5.77 5.77"/>
</g>
<rect x="23.25" y="31.25" width="31.5" height="22.5" fill="#028090" stroke="white" stroke-width="0.5"/>
<rect x="23" y="75" width="32" height="23" rx="4" fill="#FF6666"/>
<path d="M38.7172 75.2828C38.8734 75.4391 39.1266 75.4391 39.2828 75.2828L41.8284 72.7373C41.9846 72.581 41.9846 72.3278 41.8284 72.1716C41.6722 72.0154 41.419 72.0154 41.2627 72.1716L39 74.4343L36.7373 72.1716C36.581 72.0154 36.3278 72.0154 36.1716 72.1716C36.0154 72.3278 36.0154 72.581 36.1716 72.7373L38.7172 75.2828ZM38.6 54L38.6 75L39.4 75L39.4 54L38.6 54Z" fill="#028090"/>
<path d="M90.2828 53.7172C90.1266 53.5609 89.8734 53.5609 89.7172 53.7172L87.1716 56.2627C87.0154 56.419 87.0154 56.6722 87.1716 56.8284C87.3278 56.9846 87.581 56.9846 87.7373 56.8284L90 54.5657L92.2627 56.8284C92.419 56.9846 92.6722 56.9846 92.8284 56.8284C92.9846 56.6722 92.9846 56.419 92.8284 56.2627L90.2828 53.7172ZM89.6 54L89.6 75L90.4 75L90.4 54L89.6 54Z" fill="#028090"/>
<path d="M74.2828 86.2828C74.4391 86.1266 74.4391 85.8734 74.2828 85.7172L71.7373 83.1716C71.581 83.0154 71.3278 83.0154 71.1716 83.1716C71.0154 83.3278 71.0154 83.581 71.1716 83.7373L73.4343 86L71.1716 88.2627C71.0154 88.419 71.0154 88.6722 71.1716 88.8284C71.3278 88.9846 71.581 88.9846 71.7373 88.8284L74.2828 86.2828ZM55 86.4H74V85.6H55V86.4Z" fill="#028090"/>
<path d="M54.7172 41.7172C54.5609 41.8734 54.5609 42.1266 54.7172 42.2828L57.2627 44.8284C57.419 44.9846 57.6722 44.9846 57.8284 44.8284C57.9846 44.6722 57.9846 44.419 57.8284 44.2627L55.5657 42L57.8284 39.7373C57.9846 39.581 57.9846 39.3278 57.8284 39.1716C57.6722 39.0154 57.419 39.0154 57.2627 39.1716L54.7172 41.7172ZM55 42.4H74V41.6H55V42.4Z" fill="#028090"/>
<rect x="74.25" y="75.25" width="31.5" height="22.5" fill="#028090" stroke="white" stroke-width="0.5"/>
<rect x="74" y="31" width="32" height="23" rx="4" fill="#FF6666"/>
</svg>
